<svg width="50" height="50" viewBox="0 0 50 50" fill="none" xmlns="http://www.w3.org/2000/svg">
<circle cx="25" cy="25" r="25" fill="#381D12"/>
<path d="M30 20C31.9891 20 33.8968 20.7902 35.3033 22.1967C36.7098 23.6032 37.5 25.5109 37.5 27.5V36.25H32.5V27.5C32.5 26.837 32.2366 26.2011 31.7678 25.7322C31.2989 25.2634 30.663 25 30 25C29.337 25 28.7011 25.2634 28.2322 25.7322C27.7634 26.2011 27.5 26.837 27.5 27.5V36.25H22.5V27.5C22.5 25.5109 23.2902 23.6032 24.6967 22.1967C26.1032 20.7902 28.0109 20 30 20Z" fill="white" stroke="white" stroke-width="2" stroke-linecap="round" stroke-linejoin="round"/>
<path d="M17.5 21.25H12.5V36.25H17.5V21.25Z" fill="white" stroke="white" stroke-width="2" stroke-linecap="round" stroke-linejoin="round"/>
<path d="M15 17.5C16.3807 17.5 17.5 16.3807 17.5 15C17.5 13.6193 16.3807 12.5 15 12.5C13.6193 12.5 12.5 13.6193 12.5 15C12.5 16.3807 13.6193 17.5 15 17.5Z" fill="white" stroke="white" stroke-width="2" stroke-linecap="round" stroke-linejoin="round"/>
</svg>
