<svg width="50" height="50" viewBox="0 0 50 50" fill="none" xmlns="http://www.w3.org/2000/svg">
<circle cx="25" cy="25" r="25" fill="#381D12"/>
<path d="M38.75 13.7499C37.553 14.5942 36.2276 15.24 34.825 15.6624C34.0722 14.7968 33.0717 14.1832 31.9588 13.9048C30.8459 13.6263 29.6744 13.6964 28.6026 14.1054C27.5308 14.5145 26.6106 15.2429 25.9662 16.192C25.3219 17.1412 24.9846 18.2653 25 19.4124V20.6624C22.8033 20.7193 20.6266 20.2321 18.6638 19.2442C16.7009 18.2562 15.0129 16.7982 13.75 14.9999C13.75 14.9999 8.75 26.2499 20 31.2499C17.4257 32.9973 14.3589 33.8735 11.25 33.7499C22.5 39.9999 36.25 33.7499 36.25 19.3749C36.2488 19.0267 36.2154 18.6794 36.15 18.3374C37.4258 17.0792 38.326 15.4908 38.75 13.7499Z" fill="white" stroke="white" stroke-width="2" stroke-linecap="round" stroke-linejoin="round"/>
</svg>
